<svg width="320" height="56" xmlns="http://www.w3.org/2000/svg">

 <g>
  <title>background</title>
  <rect fill="none" id="canvas_background" height="402" width="582" y="-1" x="-1"/>
 </g>
 <g>
  <title>Layer 1</title>
  <path id="svg_1" stroke="#47D867" d="m303,28l17,0"/>
  <path id="svg_2" stroke="#47D867" d="m0,28l17,0"/>
  <path id="svg_3" stroke="#47D867" fill="#E6FAEA" d="m33.8175,5.31576c2.1587,-3.02215 5.644,-4.81576 9.3579,-4.81576l235.6496,0c3.714,0 7.199,1.79361 9.358,4.81576l16.203,22.68424l-16.203,22.6842c-2.159,3.0222 -5.644,4.8158 -9.358,4.8158l-235.6496,0c-3.7139,0 -7.1992,-1.7936 -9.3579,-4.8158l-16.203,-22.6842l16.203,-22.68424z"/>
  <path stroke="null" id="svg_4" fill="#3891B1" d="m52.5173,122.620533l-1.8594,0c-0.053,-0.421632 -0.1508,-0.795018 -0.2933,-1.120296c-0.1425,-0.329979 -0.3198,-0.609362 -0.5319,-0.838563c-0.2122,-0.229064 -0.4541,-0.400896 -0.7259,-0.515358c-0.2685,-0.119163 -0.5585,-0.178744 -0.87,-0.178744c-0.5535,0 -1.0441,0.19243 -1.4716,0.57729c-0.4276,0.380298 -0.7623,0.93934 -1.0043,1.676989c-0.2419,0.733086 -0.3629,1.628881 -0.3629,2.687246c0,1.076751 0.121,1.983881 0.3629,2.72153c0.2453,0.733086 0.58,1.287567 1.0043,1.663303c0.4275,0.371036 0.9164,0.556692 1.4666,0.556692c0.3049,0 0.59,-0.055019 0.8551,-0.165058c0.2685,-0.114463 0.5088,-0.281733 0.7209,-0.501673c0.2154,-0.21994 0.3961,-0.490199 0.5419,-0.810915c0.1491,-0.320717 0.2519,-0.687329 0.3082,-1.099699l1.8594,0.013824c-0.0696,0.668943 -0.2204,1.296552 -0.4524,1.883104c-0.2287,0.586414 -0.5286,1.104122 -0.8999,1.553264c-0.3712,0.444441 -0.8054,0.79253 -1.3025,1.044541c-0.4972,0.247449 -1.049,0.371174 -1.6556,0.371174c-0.8948,0 -1.6936,-0.286295 -2.3963,-0.859023c-0.7026,-0.572728 -1.2561,-1.399818 -1.6605,-2.48113c-0.4043,-1.081313 -0.6065,-2.378003 -0.6065,-3.889934c0,-1.51663 0.2038,-2.813183 0.6115,-3.889934c0.4077,-1.081313 0.9628,-1.908402 1.6655,-2.48113c0.7026,-0.572728 1.4981,-0.859023 2.3863,-0.859023c0.5668,0 1.0938,0.109901 1.581,0.32984c0.4872,0.21994 0.9214,0.543006 1.3026,0.969062c0.3811,0.421494 0.6943,0.93934 0.9396,1.553264c0.2486,0.609362 0.411,1.305814 0.4872,2.089358z"/>
  <path id="svg_5" fill="#1C1C21" d="m130.4261,130c-0.3778,-2.0881 -2.0483,-3.321 -4.0966,-3.321c-2.6051,0 -4.4943,2.0085 -4.4943,5.2301c0,3.2216 1.8892,5.2301 4.4943,5.2301c2.0483,0 3.7188,-1.233 4.0966,-3.321l-1.2329,0c-0.2983,1.4119 -1.5114,2.1676 -2.8637,2.1676c-1.8494,0 -3.3011,-1.4318 -3.3011,-4.0767c0,-2.6449 1.4517,-4.0767 3.3011,-4.0767c1.3523,0 2.5654,0.7557 2.8637,2.1676l1.2329,0zm4.9356,7.1591c2.0682,0 3.4602,-1.571 3.4602,-3.9375c0,-2.3864 -1.392,-3.9574 -3.4602,-3.9574c-2.0682,0 -3.4602,1.5909 -3.4602,3.9574c0,2.3665 1.392,3.9375 3.4602,3.9375zm0,-1.054c-1.571,0 -2.2869,-1.3523 -2.2869,-2.8835c0,-1.5313 0.7159,-2.9034 2.2869,-2.9034c1.571,0 2.2869,1.3721 2.2869,2.9034c0,1.5312 -0.7159,2.8835 -2.2869,2.8835zm5.2512,0.8949l1.1733,0l0,-4.8324c0,-1.0341 0.8154,-1.7898 1.929,-1.7898c0.3132,0 0.6364,0.0597 0.7159,0.0796l0,-1.1932c-0.1342,-0.0099 -0.4425,-0.0199 -0.6165,-0.0199c-0.9147,0 -1.7102,0.5171 -1.9886,1.2727l-0.0796,0l0,-1.1534l-1.1335,0l0,7.6364zm5.209,0l1.1733,0l0,-4.8324c0,-1.0341 0.8153,-1.7898 1.929,-1.7898c0.3132,0 0.6363,0.0597 0.7159,0.0796l0,-1.1932c-0.1342,-0.0099 -0.4425,-0.0199 -0.6165,-0.0199c-0.9148,0 -1.7102,0.5171 -1.9886,1.2727l-0.0796,0l0,-1.1534l-1.1335,0l0,7.6364zm8.1783,0.1591c1.5511,0 2.6846,-0.7756 3.0428,-1.929l-1.1337,-0.3182c-0.2983,0.7955 -0.9894,1.1932 -1.9091,1.1932c-1.3772,0 -2.3267,-0.8899 -2.3814,-2.5256l5.5432,0l0,-0.4971c0,-2.8438 -1.6902,-3.8182 -3.2811,-3.8182c-2.0682,0 -3.4404,1.6307 -3.4404,3.9773c0,2.3466 1.3523,3.9176 3.5597,3.9176zm-2.3814,-4.5938c0.0795,-1.1882 0.9197,-2.2471 2.2621,-2.2471c1.2727,0 2.088,0.9545 2.088,2.2471l-4.3501,0zm10.4302,4.5938c1.691,0 2.804,-1.0341 3.003,-2.3864l-1.173,0c-0.219,0.8353 -0.915,1.3324 -1.83,1.3324c-1.392,0 -2.287,-1.1534 -2.287,-2.9233c0,-1.7301 0.915,-2.8636 2.287,-2.8636c1.034,0 1.651,0.6363 1.83,1.3324l1.173,0c-0.199,-1.4318 -1.412,-2.3864 -3.023,-2.3864c-2.068,0 -3.44,1.6307 -3.44,3.9574c0,2.2869 1.312,3.9375 3.46,3.9375zm8.039,-7.7955l-1.63,0l0,-1.8295l-1.174,0l0,1.8295l-1.153,0l0,0.9944l1.153,0l0,4.7727c0,1.3324 1.074,1.9687 2.068,1.9687c0.438,0 0.716,-0.0795 0.875,-0.1392l-0.238,-1.054c-0.1,0.0199 -0.259,0.0597 -0.517,0.0597c-0.517,0 -1.014,-0.1591 -1.014,-1.1534l0,-4.4545l1.63,0l0,-0.9944z"/>
 </g>
</svg>