<svg width="320" height="32" xmlns="http://www.w3.org/2000/svg">

 <g>
  <title>background</title>
  <rect fill="none" id="canvas_background" height="402" width="582" y="-1" x="-1"/>
 </g>
 <g>
  <title>Layer 1</title>
  <path id="svg_1" stroke="#1E6A8E" d="m41,16l-41,0"/>
  <path id="svg_2" stroke="#1E6A8E" d="m320,16l-41,0"/>
  <path id="svg_3" stroke="#1E6A8E" fill="white" d="m53.5303,3.70404c2.1416,-2.05595 4.9953,-3.20404 7.9641,-3.20404l197.0116,0c2.968,0 5.822,1.14809 7.964,3.20404l12.808,12.29596l-12.808,12.296c-2.142,2.0559 -4.996,3.204 -7.964,3.204l-197.0116,0c-2.9688,0 -5.8225,-1.1481 -7.9641,-3.204l-12.8083,-12.296l12.8083,-12.29596z"/>
  <path id="svg_4" fill="#1E6A8E" d="m139.731,108.2727l0,-12.72725l0.815,0l0,12.72725l-0.815,0zm2.744,-8.9091c-0.06,-0.5038 -0.302,-0.8948 -0.726,-1.1733c-0.424,-0.2784 -0.944,-0.4176 -1.561,-0.4176c-0.451,0 -0.845,0.0729 -1.183,0.2188c-0.335,0.1458 -0.597,0.3463 -0.786,0.6015c-0.185,0.2552 -0.278,0.5453 -0.278,0.8701c0,0.2717 0.065,0.5054 0.194,0.701c0.132,0.1922 0.301,0.3529 0.507,0.4822c0.205,0.126 0.421,0.2304 0.646,0.3132c0.226,0.0796 0.433,0.1442 0.622,0.1939l1.034,0.2784c0.265,0.0696 0.56,0.1657 0.885,0.2884c0.328,0.1226 0.641,0.29 0.939,0.5021c0.302,0.2088 0.55,0.4773 0.746,0.8054c0.196,0.3281 0.293,0.7308 0.293,1.2081c0,0.5502 -0.144,1.0473 -0.432,1.4915c-0.285,0.4441 -0.703,0.7971 -1.253,1.0589c-0.547,0.2619 -1.211,0.3928 -1.994,0.3928c-0.729,0 -1.36,-0.1177 -1.894,-0.353c-0.53,-0.2353 -0.948,-0.5635 -1.253,-0.9844c-0.301,-0.4209 -0.472,-0.9098 -0.512,-1.4666l1.273,0c0.033,0.3845 0.162,0.7027 0.388,0.9545c0.228,0.2486 0.517,0.4342 0.865,0.5569c0.351,0.1193 0.729,0.1789 1.133,0.1789c0.471,0 0.894,-0.0762 1.268,-0.2287c0.375,-0.1557 0.671,-0.3712 0.89,-0.6463c0.219,-0.2784 0.328,-0.6032 0.328,-0.9744c0,-0.3381 -0.094,-0.6132 -0.283,-0.8253c-0.189,-0.2121 -0.438,-0.3844 -0.746,-0.517c-0.308,-0.1326 -0.641,-0.2486 -0.999,-0.348l-1.253,-0.358c-0.796,-0.2287 -1.425,-0.5551 -1.889,-0.9794c-0.464,-0.4242 -0.696,-0.9794 -0.696,-1.6655c0,-0.57 0.154,-1.0672 0.462,-1.4915c0.312,-0.4275 0.729,-0.7589 1.253,-0.9943c0.527,-0.2386 1.115,-0.3579 1.765,-0.3579c0.656,0 1.239,0.1176 1.75,0.353c0.51,0.232 0.915,0.5501 1.213,0.9545c0.301,0.4044 0.461,0.8634 0.477,1.3771l-1.193,0zm6.76,-2.5454l0,10.1818l-1.233,0l0,-8.8892l-0.06,0l-2.485,1.6506l0,-1.2529l2.545,-1.6903l1.233,0zm4.097,8.7898l-0.08,0.5369c-0.056,0.3778 -0.142,0.7822 -0.258,1.2131c-0.113,0.4308 -0.231,0.8368 -0.353,1.218c-0.123,0.3811 -0.224,0.6844 -0.304,0.9098l-0.895,0c0.044,-0.2121 0.1,-0.4922 0.17,-0.8402c0.069,-0.348 0.139,-0.7375 0.208,-1.1683c0.073,-0.4276 0.133,-0.8651 0.179,-1.3125l0.06,-0.5568l1.273,0zm5.119,1.5312c-0.749,0 -1.387,-0.2038 -1.914,-0.6115c-0.527,-0.411 -0.93,-1.0059 -1.208,-1.7848c-0.278,-0.7822 -0.418,-1.7268 -0.418,-2.8338c0,-1.1004 0.14,-2.04 0.418,-2.8189c0.282,-0.7822 0.686,-1.3788 1.213,-1.7898c0.53,-0.4143 1.167,-0.6214 1.909,-0.6214c0.743,0 1.377,0.2071 1.904,0.6214c0.531,0.411 0.935,1.0076 1.213,1.7898c0.282,0.7789 0.423,1.7185 0.423,2.8189c0,1.107 -0.139,2.0516 -0.418,2.8338c-0.278,0.7789 -0.681,1.3738 -1.208,1.7848c-0.527,0.4077 -1.165,0.6115 -1.914,0.6115zm0,-1.0937c0.743,0 1.319,-0.358 1.73,-1.0739c0.411,-0.7159 0.617,-1.7368 0.617,-3.0625c0,-0.8816 -0.095,-1.6323 -0.284,-2.2521c-0.185,-0.6198 -0.454,-1.0921 -0.805,-1.4169c-0.348,-0.3249 -0.767,-0.4873 -1.258,-0.4873c-0.736,0 -1.311,0.363 -1.725,1.0888c-0.414,0.7226 -0.621,1.745 -0.621,3.0675c0,0.8816 0.092,1.6307 0.278,2.2471c0.186,0.6165 0.452,1.0855 0.8,1.407c0.352,0.3215 0.774,0.4823 1.268,0.4823zm8.75,1.0937c-0.749,0 -1.387,-0.2038 -1.914,-0.6115c-0.527,-0.411 -0.93,-1.0059 -1.208,-1.7848c-0.278,-0.7822 -0.418,-1.7268 -0.418,-2.8338c0,-1.1004 0.14,-2.04 0.418,-2.8189c0.282,-0.7822 0.686,-1.3788 1.213,-1.7898c0.53,-0.4143 1.167,-0.6214 1.909,-0.6214c0.743,0 1.377,0.2071 1.904,0.6214c0.531,0.411 0.935,1.0076 1.213,1.7898c0.282,0.7789 0.423,1.7185 0.423,2.8189c0,1.107 -0.139,2.0516 -0.418,2.8338c-0.278,0.7789 -0.681,1.3738 -1.208,1.7848c-0.527,0.4077 -1.165,0.6115 -1.914,0.6115zm0,-1.0937c0.743,0 1.319,-0.358 1.73,-1.0739c0.411,-0.7159 0.617,-1.7368 0.617,-3.0625c0,-0.8816 -0.095,-1.6323 -0.284,-2.2521c-0.185,-0.6198 -0.454,-1.0921 -0.805,-1.4169c-0.348,-0.3249 -0.767,-0.4873 -1.258,-0.4873c-0.736,0 -1.311,0.363 -1.725,1.0888c-0.414,0.7226 -0.621,1.745 -0.621,3.0675c0,0.8816 0.092,1.6307 0.278,2.2471c0.186,0.6165 0.452,1.0855 0.8,1.407c0.352,0.3215 0.774,0.4823 1.268,0.4823zm8.75,1.0937c-0.749,0 -1.387,-0.2038 -1.914,-0.6115c-0.527,-0.411 -0.93,-1.0059 -1.208,-1.7848c-0.278,-0.7822 -0.418,-1.7268 -0.418,-2.8338c0,-1.1004 0.14,-2.04 0.418,-2.8189c0.282,-0.7822 0.686,-1.3788 1.213,-1.7898c0.53,-0.4143 1.167,-0.6214 1.909,-0.6214c0.743,0 1.377,0.2071 1.904,0.6214c0.531,0.411 0.935,1.0076 1.213,1.7898c0.282,0.7789 0.423,1.7185 0.423,2.8189c0,1.107 -0.139,2.0516 -0.418,2.8338c-0.278,0.7789 -0.681,1.3738 -1.208,1.7848c-0.527,0.4077 -1.165,0.6115 -1.914,0.6115zm0,-1.0937c0.743,0 1.319,-0.358 1.73,-1.0739c0.411,-0.7159 0.617,-1.7368 0.617,-3.0625c0,-0.8816 -0.095,-1.6323 -0.284,-2.2521c-0.185,-0.6198 -0.454,-1.0921 -0.805,-1.4169c-0.348,-0.3249 -0.767,-0.4873 -1.258,-0.4873c-0.736,0 -1.311,0.363 -1.725,1.0888c-0.414,0.7226 -0.621,1.745 -0.621,3.0675c0,0.8816 0.092,1.6307 0.278,2.2471c0.186,0.6165 0.452,1.0855 0.8,1.407c0.352,0.3215 0.774,0.4823 1.268,0.4823z"/>
 </g>
</svg>