<svg width="320" height="56" xmlns="http://www.w3.org/2000/svg">

 <g>
  <title>background</title>
  <rect fill="none" id="canvas_background" height="402" width="582" y="-1" x="-1"/>
 </g>
 <g>
  <title>Layer 1</title>
  <path id="svg_1" stroke="#1E6A8E" d="m303,28l17,0"/>
  <path id="svg_2" stroke="#1E6A8E" d="m0,28l17,0"/>
  <path id="svg_3" stroke="#1E6A8E" fill="#FFF3EB" d="m32.8175,5.31576c2.1587,-3.02215 5.644,-4.81576 9.3579,-4.81576l235.6496,0c3.714,0 7.199,1.79361 9.358,4.81576l16.203,22.68424l-16.203,22.6842c-2.159,3.0222 -5.644,4.8158 -9.358,4.8158l-235.6496,0c-3.7139,0 -7.1992,-1.7936 -9.3579,-4.8158l-16.203,-22.6842l16.203,-22.68424z"/>
  <path stroke="null" id="svg_4" fill="#3891B1" d="m67.403699,114l0,-10.1818l5.436955,0c1.026377,0 1.879367,0.116 2.558969,0.348c0.684345,0.2287 1.195162,0.5419 1.532592,0.9396c0.342172,0.3978 0.513189,0.8485 0.513189,1.3523c0,0.4143 -0.110896,0.7689 -0.332826,1.0639c-0.221931,0.2917 -0.520163,0.5287 -0.894558,0.711c-0.374534,0.1822 -0.793008,0.3132 -1.255283,0.3927l0,0.0994c0.503982,0.0199 0.987041,0.131 1.449455,0.3331c0.466878,0.1989 0.848386,0.4806 1.144248,0.8452c0.295861,0.3646 0.443861,0.8054 0.443861,1.3225c0,0.5269 -0.177991,1.0009 -0.533973,1.4218c-0.356121,0.4176 -0.892326,0.7474 -1.609033,0.9894c-0.716567,0.2419 -1.6181,0.3629 -2.704598,0.3629l-5.748997,0zm2.572779,-1.5412l2.76709,0c0.933895,0 1.606661,-0.1276 2.018021,-0.3828c0.416103,-0.2585 0.624224,-0.59 0.624224,-0.9943c0,-0.3016 -0.104061,-0.5734 -0.312042,-0.8154c-0.208121,-0.2452 -0.503982,-0.4375 -0.887723,-0.5767c-0.383741,-0.1425 -0.841412,-0.2137 -1.373153,-0.2137l-2.836417,0l0,2.9829zm0,-4.3104l2.545159,0c0.443861,0 0.843783,-0.058 1.199765,-0.174c0.355982,-0.1193 0.635662,-0.2867 0.83918,-0.5021c0.207982,-0.2187 0.312042,-0.4773 0.312042,-0.7756c0,-0.3944 -0.194172,-0.7192 -0.582516,-0.9744c-0.383741,-0.2552 -0.954818,-0.3828 -1.712954,-0.3828l-2.600677,0l0,2.8089z"/>
  <path id="svg_5" fill="#1C1C21" d="m93.8011,139.3636l1.1932,0c-0.0547,-1.5362 -1.4716,-2.6846 -3.4403,-2.6846c-1.9489,0 -3.4801,1.1335 -3.4801,2.8437c0,1.3722 0.9943,2.1875 2.5852,2.6449l1.2528,0.358c1.0739,0.2983 2.0284,0.6761 2.0284,1.6903c0,1.1136 -1.0738,1.8494 -2.4858,1.8494c-1.213,0 -2.2869,-0.5369 -2.3863,-1.6903l-1.2727,0c0.1193,1.6705 1.4715,2.804 3.659,2.804c2.3466,0 3.679,-1.2926 3.679,-2.9432c0,-1.9091 -1.8096,-2.5256 -2.8636,-2.804l-1.0341,-0.2784c-0.7557,-0.1989 -1.9688,-0.5966 -1.9688,-1.6903c0,-0.9745 0.8949,-1.6904 2.2472,-1.6904c1.233,0 2.1676,0.5867 2.2869,1.5909zm6.4022,7.7955c1.5511,0 2.6847,-0.7756 3.0426,-1.929l-1.1335,-0.3182c-0.2983,0.7955 -0.9894,1.1932 -1.9091,1.1932c-1.3771,0 -2.3267,-0.8899 -2.3814,-2.5256l5.5433,0l0,-0.4971c0,-2.8438 -1.6903,-3.8182 -3.2812,-3.8182c-2.0682,0 -3.4404,1.6307 -3.4404,3.9773c0,2.3466 1.3523,3.9176 3.5597,3.9176zm-2.3814,-4.5938c0.0796,-1.1882 0.9198,-2.2471 2.2621,-2.2471c1.2727,0 2.0881,0.9545 2.0881,2.2471l-4.3502,0zm8.5014,-5.7471l-1.1733,0l0,10.1818l1.1733,0l0,-10.1818zm5.3507,10.3409c1.5511,0 2.6847,-0.7756 3.0426,-1.929l-1.1335,-0.3182c-0.2983,0.7955 -0.9893,1.1932 -1.9091,1.1932c-1.3771,0 -2.3267,-0.8899 -2.3814,-2.5256l5.5433,0l0,-0.4971c0,-2.8438 -1.6903,-3.8182 -3.2812,-3.8182c-2.0682,0 -3.4404,1.6307 -3.4404,3.9773c0,2.3466 1.3523,3.9176 3.5597,3.9176zm-2.3814,-4.5938c0.0796,-1.1882 0.9198,-2.2471 2.2621,-2.2471c1.2727,0 2.0881,0.9545 2.0881,2.2471l-4.3502,0zm10.4304,4.5938c1.6904,0 2.804,-1.0341 3.0029,-2.3864l-1.1733,0c-0.2188,0.8353 -0.9148,1.3324 -1.8296,1.3324c-1.392,0 -2.2869,-1.1534 -2.2869,-2.9233c0,-1.7301 0.9148,-2.8636 2.2869,-2.8636c1.0341,0 1.6506,0.6363 1.8296,1.3324l1.1733,0c-0.1989,-1.4318 -1.412,-2.3864 -3.0228,-2.3864c-2.0682,0 -3.4403,1.6307 -3.4403,3.9574c0,2.2869 1.3125,3.9375 3.4602,3.9375zm8.039,-7.7955l-1.631,0l0,-1.8295l-1.173,0l0,1.8295l-1.153,0l0,0.9944l1.153,0l0,4.7727c0,1.3324 1.074,1.9687 2.068,1.9687c0.438,0 0.716,-0.0795 0.875,-0.1392l-0.238,-1.054c-0.1,0.0199 -0.259,0.0597 -0.517,0.0597c-0.517,0 -1.015,-0.1591 -1.015,-1.1534l0,-4.4545l1.631,0l0,-0.9944zm4.885,7.7955c1.551,0 2.684,-0.7756 3.042,-1.929l-1.133,-0.3182c-0.299,0.7955 -0.99,1.1932 -1.909,1.1932c-1.377,0 -2.327,-0.8899 -2.382,-2.5256l5.544,0l0,-0.4971c0,-2.8438 -1.691,-3.8182 -3.282,-3.8182c-2.068,0 -3.44,1.6307 -3.44,3.9773c0,2.3466 1.352,3.9176 3.56,3.9176zm-2.382,-4.5938c0.08,-1.1882 0.92,-2.2471 2.262,-2.2471c1.273,0 2.088,0.9545 2.088,2.2471l-4.35,0zm10.212,4.5938c1.472,0 1.969,-0.9148 2.227,-1.3324l0.139,0l0,1.1733l1.134,0l0,-10.1818l-1.173,0l0,3.7585l-0.1,0c-0.258,-0.3977 -0.716,-1.3125 -2.207,-1.3125c-1.929,0 -3.262,1.5313 -3.262,3.9375c0,2.4261 1.333,3.9574 3.242,3.9574zm0.159,-1.054c-1.472,0 -2.227,-1.2926 -2.227,-2.9233c0,-1.6108 0.736,-2.8636 2.227,-2.8636c1.432,0 2.188,1.1534 2.188,2.8636c0,1.7301 -0.776,2.9233 -2.188,2.9233z"/>
 </g>
</svg>