<svg width="320" height="56" xmlns="http://www.w3.org/2000/svg">

 <g>
  <title>background</title>
  <rect fill="none" id="canvas_background" height="402" width="582" y="-1" x="-1"/>
 </g>
 <g>
  <title>Layer 1</title>
  <path id="svg_1" stroke="#EC6259" d="m303,28l17,0"/>
  <path id="svg_2" stroke="#EC6259" d="m0,28l17,0"/>
  <path id="svg_3" stroke="#EC6259" fill="#FDEEED" d="m32.8175,5.31576c2.1587,-3.02215 5.644,-4.81576 9.3579,-4.81576l235.6496,0c3.714,0 7.199,1.79361 9.358,4.81576l16.203,22.68424l-16.203,22.6842c-2.159,3.0222 -5.644,4.8158 -9.358,4.8158l-235.6496,0c-3.7139,0 -7.1992,-1.7936 -9.3579,-4.8158l-16.203,-22.6842l16.203,-22.68424z"/>
  <path stroke="null" id="svg_4" fill="#3891B1" d="m124.005679,166l-19.073676,0l0,-10.1818l19.458433,0c5.588378,0 10.388445,0.2038 14.401308,0.6115c4.031106,0.4043 7.127406,0.986 9.289455,1.745c2.162048,0.759 3.242796,1.6672 3.242796,2.7244c0,1.0607 -1.090145,1.9721 -3.270436,2.7344c-2.162048,0.7623 -5.285989,1.3473 -9.371824,1.755c-4.067591,0.4077 -8.959426,0.6115 -14.676056,0.6115zm-8.877057,-1.5959l8.38229,0c3.921096,0 7.191533,-0.1292 9.811309,-0.3878c2.620329,-0.2618 4.589999,-0.6512 5.909009,-1.1683c1.319562,-0.5203 1.979067,-1.17 1.979067,-1.9489c0,-0.7788 -0.659505,-1.4251 -1.979067,-1.9389c-1.31901,-0.517 -3.270436,-0.9031 -5.853727,-1.1584c-2.565048,-0.2585 -5.753116,-0.3877 -9.564202,-0.3877l-8.684678,0l0,6.99z"/>
  <path id="svg_5" fill="#1C1C21" d="m150.0824,185l1.2727,0l2.2472,-8.1136l0.0795,0l2.2472,8.1136l1.2727,0l2.7841,-10.1818l-1.2528,0l-2.1279,8.2926l-0.0994,0l-2.1676,-8.2926l-1.3921,0l-2.1676,8.2926l-0.0994,0l-2.1279,-8.2926l-1.2528,0l2.7841,10.1818zm10.802,0l1.1733,0l0,-4.8324c0,-1.0341 0.8153,-1.7898 1.929,-1.7898c0.3132,0 0.6363,0.0597 0.7159,0.0796l0,-1.1932c-0.1342,-0.0099 -0.4425,-0.0199 -0.6165,-0.0199c-0.9148,0 -1.7102,0.5171 -1.9886,1.2727l-0.0796,0l0,-1.1534l-1.1335,0l0,7.6364zm8.0788,0.1591c2.0682,0 3.4603,-1.571 3.4603,-3.9375c0,-2.3864 -1.3921,-3.9574 -3.4603,-3.9574c-2.0681,0 -3.4602,1.571 -3.4602,3.9574c0,2.3665 1.3921,3.9375 3.4602,3.9375zm0,-1.054c-1.571,0 -2.2869,-1.3523 -2.2869,-2.8835c0,-1.5313 0.7159,-2.9034 2.2869,-2.9034c1.5711,0 2.287,1.3721 2.287,2.9034c0,1.5312 -0.7159,2.8835 -2.287,2.8835zm6.4246,-3.6989c0,-1.3323 0.8253,-2.088 1.9488,-2.088c1.0888,0 1.75,0.7109 1.75,1.9091l0,4.7727l1.1733,0l0,-4.8523c0,-1.9488 -1.039,-2.8835 -2.5852,-2.8835c-1.1534,0 -1.8693,0.517 -2.2273,1.2926l-0.0994,0l0,-1.1932l-1.1335,0l0,7.6364l1.1733,0l0,-4.5938zm10.0982,7.6165c1.83,0 3.301,-0.8352 3.301,-2.8039l0,-7.8552l-1.133,0l0,1.2131l-0.119,0c-0.259,-0.3977 -0.736,-1.3125 -2.228,-1.3125c-1.929,0 -3.261,1.5313 -3.261,3.8778c0,2.3864 1.392,3.7387 3.241,3.7387c1.492,0 1.969,-0.875 2.228,-1.2926l0.099,0l0,1.5511c0,1.2727 -0.895,1.8494 -2.128,1.8494c-1.387,0 -1.874,-0.7308 -2.187,-1.1534l-0.9348,0.6563c0.4772,0.8004 1.4168,1.5312 3.1218,1.5312zm-0.039,-4.196c-1.472,0 -2.228,-1.1136 -2.228,-2.7045c0,-1.5512 0.736,-2.804 2.228,-2.804c1.431,0 2.187,1.1534 2.187,2.804c0,1.6903 -0.776,2.7045 -2.187,2.7045z"/>
 </g>
</svg>