<svg width="320" height="56" xmlns="http://www.w3.org/2000/svg">

 <g>
  <title>background</title>
  <rect fill="none" id="canvas_background" height="402" width="582" y="-1" x="-1"/>
 </g>
 <g>
  <title>Layer 1</title>
  <path id="svg_1" stroke="#D0D0D8" d="m303,28l17,0"/>
  <path id="svg_2" stroke="#D0D0D8" d="m0,28l17,0"/>
  <path id="svg_3" stroke="#D0D0D8" fill="white" d="m42.1754,0.5l235.6496,0c3.714,0 7.199,1.79361 9.358,4.81576l16.203,22.68424l-16.203,22.6842c-2.159,3.0222 -5.644,4.8158 -9.358,4.8158l-235.6496,0c-3.7139,0 -7.1992,-1.7936 -9.3579,-4.8158l-16.203,-22.6842l16.203,-22.68424c2.1587,-3.02215 5.644,-4.81576 9.3579,-4.81576z"/>
  <path stroke="null" id="svg_4" fill="#3891B1" d="m118.079266,112l-7.801664,0l14.204117,-10.1818l9.022953,0l14.22393,10.1818l-7.801268,0l-10.776425,-8.0938l-0.315427,0l-10.756215,8.0938zm0.255987,-3.9922l21.276653,0l0,1.4815l-21.276653,0l0,-1.4815z"/>
  <path id="svg_5" fill="#1C1C21" d="m111.6335,88.8182l0,10.1818l-1.2329,0l0,-8.8892l-0.0597,0l-2.4858,1.6506l0,-1.2529l2.5455,-1.6903l1.2329,0zm6.2493,10.321c-0.749,0 -1.3871,-0.2038 -1.914,-0.6115c-0.527,-0.411 -0.9297,-1.0059 -1.2081,-1.7848c-0.2785,-0.7822 -0.4177,-1.7268 -0.4177,-2.8338c0,-1.1004 0.1392,-2.04 0.4177,-2.8189c0.2817,-0.7822 0.686,-1.3788 1.213,-1.7898c0.5303,-0.4143 1.1667,-0.6214 1.9091,-0.6214c0.7424,0 1.3771,0.2071 1.9041,0.6214c0.5303,0.411 0.9347,1.0076 1.2131,1.7898c0.2817,0.7789 0.4226,1.7185 0.4226,2.8189c0,1.107 -0.1392,2.0516 -0.4176,2.8338c-0.2784,0.7789 -0.6811,1.3738 -1.2081,1.7848c-0.527,0.4077 -1.165,0.6115 -1.9141,0.6115zm0,-1.0937c0.7424,0 1.3191,-0.358 1.7301,-1.0739c0.411,-0.7159 0.6165,-1.7368 0.6165,-3.0625c0,-0.8816 -0.0945,-1.6323 -0.2834,-2.2521c-0.1856,-0.6198 -0.454,-1.0921 -0.8054,-1.4169c-0.348,-0.3249 -0.7673,-0.4873 -1.2578,-0.4873c-0.7358,0 -1.3108,0.363 -1.7251,1.0888c-0.4143,0.7226 -0.6215,1.745 -0.6215,3.0675c0,0.8816 0.0928,1.6307 0.2784,2.2471c0.1856,0.6165 0.4524,1.0855 0.8005,1.407c0.3513,0.3215 0.7739,0.4823 1.2677,0.4823zm10.1421,3.8181c-0.1989,0 -0.3762,-0.0165 -0.532,-0.0497c-0.1558,-0.0298 -0.2635,-0.0596 -0.3232,-0.0895l0.2983,-1.0341c0.2851,0.073 0.537,0.0995 0.7557,0.0796c0.2188,-0.0199 0.4127,-0.1177 0.5817,-0.2933c0.1723,-0.1724 0.3298,-0.4525 0.4723,-0.8402l0.2187,-0.5966l-2.8238,-7.6762l1.2727,0l2.108,6.0853l0.0795,0l2.108,-6.0853l1.2727,0l-3.2415,8.75c-0.1458,0.3944 -0.3265,0.7209 -0.5419,0.9794c-0.2154,0.2619 -0.4657,0.4558 -0.7507,0.5817c-0.2817,0.126 -0.5999,0.1889 -0.9545,0.1889zm9.9655,-2.7045c-0.7358,0 -1.3705,-0.1624 -1.9041,-0.4872c-0.5303,-0.3281 -0.9396,-0.7855 -1.228,-1.3722c-0.285,-0.5899 -0.4275,-1.276 -0.4275,-2.0582c0,-0.7822 0.1425,-1.4716 0.4275,-2.0682c0.2884,-0.5999 0.6894,-1.0672 1.2031,-1.402c0.5171,-0.3381 1.1203,-0.5071 1.8097,-0.5071c0.3977,0 0.7905,0.0663 1.1783,0.1989c0.3877,0.1325 0.7407,0.348 1.0589,0.6463c0.3182,0.295 0.5717,0.6861 0.7607,1.1733c0.1889,0.4872 0.2833,1.0871 0.2833,1.7997l0,0.4971l-5.8863,0l0,-1.0142l4.6932,0c0,-0.4308 -0.0862,-0.8153 -0.2586,-1.1534c-0.169,-0.338 -0.4109,-0.6048 -0.7258,-0.8004c-0.3116,-0.1955 -0.6795,-0.2933 -1.1037,-0.2933c-0.4673,0 -0.8717,0.116 -1.2131,0.348c-0.338,0.2287 -0.5982,0.527 -0.7805,0.8949c-0.1823,0.3679 -0.2735,0.7623 -0.2735,1.1832l0,0.6762c0,0.5767 0.0995,1.0655 0.2983,1.4666c0.2022,0.3977 0.4823,0.701 0.8402,0.9098c0.358,0.2055 0.774,0.3082 1.2479,0.3082c0.3083,0 0.5867,-0.0431 0.8352,-0.1292c0.2519,-0.0895 0.469,-0.2221 0.6513,-0.3978c0.1823,-0.179 0.3232,-0.401 0.4226,-0.6662l1.1335,0.3182c-0.1193,0.3845 -0.3198,0.7226 -0.6015,1.0142c-0.2818,0.2884 -0.6298,0.5137 -1.0441,0.6762c-0.4143,0.159 -0.8799,0.2386 -1.397,0.2386zm7.1936,0.0199c-0.484,0 -0.923,-0.0912 -1.317,-0.2735c-0.395,-0.1856 -0.708,-0.4524 -0.9398,-0.8004c-0.232,-0.3513 -0.348,-0.7756 -0.348,-1.2727c0,-0.4375 0.0862,-0.7922 0.2585,-1.0639c0.1723,-0.2751 0.4023,-0.4906 0.6913,-0.6463c0.288,-0.1558 0.606,-0.2718 0.954,-0.3481c0.352,-0.0795 0.705,-0.1425 1.059,-0.1889c0.464,-0.0596 0.84,-0.1044 1.129,-0.1342c0.291,-0.0331 0.504,-0.0878 0.636,-0.1641c0.136,-0.0762 0.204,-0.2088 0.204,-0.3977l0,-0.0398c0,-0.4905 -0.134,-0.8717 -0.403,-1.1434c-0.265,-0.2718 -0.668,-0.4077 -1.208,-0.4077c-0.56,0 -0.999,0.1226 -1.317,0.3679c-0.318,0.2453 -0.542,0.5071 -0.671,0.7855l-1.1141,-0.3977c0.1989,-0.464 0.4641,-0.8253 0.7951,-1.0838c0.335,-0.2619 0.7,-0.4442 1.094,-0.5469c0.398,-0.1061 0.789,-0.1591 1.173,-0.1591c0.246,0 0.527,0.0298 0.846,0.0895c0.321,0.0563 0.631,0.174 0.929,0.353c0.302,0.179 0.552,0.4491 0.751,0.8103c0.199,0.3613 0.298,0.8452 0.298,1.4518l0,5.0312l-1.173,0l0,-1.0341l-0.06,0c-0.079,0.1657 -0.212,0.343 -0.397,0.532c-0.186,0.1889 -0.433,0.3496 -0.741,0.4822c-0.308,0.1326 -0.685,0.1989 -1.129,0.1989zm0.179,-1.054c0.464,0 0.855,-0.0911 1.174,-0.2734c0.321,-0.1823 0.563,-0.4177 0.725,-0.706c0.166,-0.2884 0.249,-0.5916 0.249,-0.9098l0,-1.0739c-0.05,0.0597 -0.159,0.1144 -0.328,0.1641c-0.166,0.0464 -0.358,0.0878 -0.577,0.1243c-0.215,0.0331 -0.426,0.063 -0.631,0.0895c-0.202,0.0232 -0.366,0.0431 -0.492,0.0596c-0.305,0.0398 -0.59,0.1044 -0.856,0.1939c-0.261,0.0862 -0.473,0.2171 -0.636,0.3928c-0.159,0.1723 -0.239,0.4076 -0.239,0.7059c0,0.4077 0.151,0.716 0.453,0.9248c0.305,0.2055 0.691,0.3082 1.158,0.3082zm5.463,0.875l0,-7.6364l1.133,0l0,1.1534l0.08,0c0.139,-0.3778 0.391,-0.6844 0.756,-0.9197c0.364,-0.2353 0.775,-0.353 1.233,-0.353c0.086,0 0.193,0.0017 0.323,0.005c0.129,0.0033 0.227,0.0083 0.293,0.0149l0,1.1932c-0.04,-0.01 -0.131,-0.0249 -0.273,-0.0448c-0.14,-0.0232 -0.287,-0.0348 -0.443,-0.0348c-0.371,0 -0.703,0.0779 -0.994,0.2337c-0.289,0.1525 -0.517,0.3646 -0.686,0.6364c-0.166,0.2684 -0.249,0.575 -0.249,0.9197l0,4.8324l-1.173,0zm10.618,-5.9261l-1.054,0.2983c-0.066,-0.1757 -0.164,-0.3464 -0.293,-0.5121c-0.126,-0.169 -0.299,-0.3083 -0.517,-0.4176c-0.219,-0.1094 -0.499,-0.1641 -0.841,-0.1641c-0.467,0 -0.856,0.1077 -1.168,0.3232c-0.308,0.2121 -0.462,0.4822 -0.462,0.8103c0,0.2917 0.106,0.522 0.318,0.6911c0.212,0.169 0.543,0.3099 0.994,0.4226l1.134,0.2784c0.682,0.1657 1.191,0.4192 1.526,0.7606c0.335,0.3381 0.502,0.7739 0.502,1.3076c0,0.4375 -0.126,0.8286 -0.378,1.1733c-0.248,0.3447 -0.596,0.6164 -1.044,0.8153c-0.447,0.1989 -0.968,0.2983 -1.561,0.2983c-0.779,0 -1.423,-0.169 -1.934,-0.5071c-0.51,-0.3381 -0.833,-0.8319 -0.969,-1.4815l1.113,-0.2785c0.106,0.411 0.307,0.7193 0.602,0.9248c0.298,0.2055 0.688,0.3082 1.168,0.3082c0.547,0 0.981,-0.116 1.303,-0.348c0.325,-0.2353 0.487,-0.5171 0.487,-0.8452c0,-0.2651 -0.093,-0.4872 -0.278,-0.6662c-0.186,-0.1823 -0.471,-0.3182 -0.855,-0.4076l-1.273,-0.2983c-0.7,-0.1658 -1.213,-0.4226 -1.541,-0.7706c-0.325,-0.3514 -0.488,-0.7905 -0.488,-1.3175c0,-0.4309 0.121,-0.812 0.363,-1.1435c0.246,-0.3314 0.579,-0.5916 1,-0.7805c0.424,-0.1889 0.904,-0.2834 1.441,-0.2834c0.756,0 1.349,0.1657 1.78,0.4972c0.434,0.3314 0.743,0.7689 0.925,1.3125z"/>
 </g>
</svg>