<svg width="320" height="32" xmlns="http://www.w3.org/2000/svg">

 <g>
  <title>background</title>
  <rect fill="none" id="canvas_background" height="402" width="582" y="-1" x="-1"/>
 </g>
 <g>
  <title>Layer 1</title>
  <path id="svg_1" stroke="#D0D0D8" d="m41,16l-41,0"/>
  <path id="svg_2" stroke="#D0D0D8" d="m320,16l-41,0"/>
  <path id="svg_3" stroke="#D0D0D8" fill="white" d="m61.4944,0.5l197.0116,0c2.968,0 5.822,1.14809 7.964,3.20405l12.808,12.29595l-12.808,12.296c-2.142,2.0559 -4.996,3.204 -7.964,3.204l-197.0116,0c-2.9688,0 -5.8225,-1.1481 -7.9641,-3.204l-12.8083,-12.296l12.8083,-12.29596c2.1416,-2.05595 4.9953,-3.20404 7.9641,-3.20404z"/>
  <path id="svg_4" fill="#1C1C21" d="m169.999,94.2727l0.816,0l0,-1.1086c2.088,-0.1442 3.261,-1.3772 3.261,-2.9283c0,-1.9091 -1.81,-2.5256 -2.864,-2.804l-0.397,-0.1094l0,-3.5348c1.054,0.1044 1.819,0.6712 1.929,1.576l1.193,0c-0.05,-1.4517 -1.323,-2.5554 -3.122,-2.6747l0,-1.14345l-0.816,0l0,1.15835c-1.705,0.174 -2.983,1.2578 -2.983,2.8189c0,1.3722 0.995,2.1875 2.585,2.6449l0.398,0.1144l0,3.7635c-1.044,-0.1094 -1.899,-0.6464 -1.988,-1.6705l-1.273,0c0.114,1.5661 1.307,2.6598 3.261,2.7891l0,1.1086zm0.816,-2.2272l0,-3.5299l0.039,0.01c1.074,0.2983 2.029,0.6761 2.029,1.6903c0,0.9993 -0.865,1.6953 -2.068,1.8296zm-0.816,-4.9418c-0.755,-0.2138 -1.79,-0.6314 -1.79,-1.6406c0,-0.8601 0.696,-1.5164 1.79,-1.6605l0,3.3011zm9.505,-4.2855l-1.233,0l-2.546,1.6903l0,1.2529l2.486,-1.6506l0.06,0l0,8.8892l1.233,0l0,-10.1818zm4.096,8.7898l-1.272,0l-0.06,0.5568c-0.144,1.3473 -0.428,2.6896 -0.557,3.321l0.895,0c0.239,-0.6761 0.746,-2.2074 0.915,-3.3409l0.079,-0.5369zm5.12,1.5312c2.247,0 3.539,-1.9041 3.539,-5.2301c0,-3.3011 -1.312,-5.2301 -3.539,-5.2301c-2.228,0 -3.54,1.929 -3.54,5.2301c0,3.326 1.293,5.2301 3.54,5.2301zm0,-1.0937c-1.482,0 -2.347,-1.4866 -2.347,-4.1364c0,-2.6449 0.875,-4.1563 2.347,-4.1563c1.471,0 2.346,1.5114 2.346,4.1563c0,2.6498 -0.865,4.1364 -2.346,4.1364zm8.75,1.0937c2.247,0 3.539,-1.9041 3.539,-5.2301c0,-3.3011 -1.312,-5.2301 -3.539,-5.2301c-2.228,0 -3.54,1.929 -3.54,5.2301c0,3.326 1.293,5.2301 3.54,5.2301zm0,-1.0937c-1.482,0 -2.347,-1.4866 -2.347,-4.1364c0,-2.6449 0.875,-4.1563 2.347,-4.1563c1.471,0 2.346,1.5114 2.346,4.1563c0,2.6498 -0.865,4.1364 -2.346,4.1364zm8.75,1.0937c2.247,0 3.539,-1.9041 3.539,-5.2301c0,-3.3011 -1.312,-5.2301 -3.539,-5.2301c-2.228,0 -3.54,1.929 -3.54,5.2301c0,3.326 1.293,5.2301 3.54,5.2301zm0,-1.0937c-1.482,0 -2.347,-1.4866 -2.347,-4.1364c0,-2.6449 0.875,-4.1563 2.347,-4.1563c1.471,0 2.346,1.5114 2.346,4.1563c0,2.6498 -0.865,4.1364 -2.346,4.1364zm6.843,-0.4375l-1.273,0l-0.059,0.5568c-0.144,1.3473 -0.428,2.6896 -0.557,3.321l0.895,0c0.238,-0.6761 0.746,-2.2074 0.915,-3.3409l0.079,-0.5369zm5.12,1.5312c2.247,0 3.539,-1.9041 3.539,-5.2301c0,-3.3011 -1.312,-5.2301 -3.539,-5.2301c-2.228,0 -3.54,1.929 -3.54,5.2301c0,3.326 1.292,5.2301 3.54,5.2301zm0,-1.0937c-1.482,0 -2.347,-1.4866 -2.347,-4.1364c0,-2.6449 0.875,-4.1563 2.347,-4.1563c1.471,0 2.346,1.5114 2.346,4.1563c0,2.6498 -0.865,4.1364 -2.346,4.1364zm8.75,1.0937c2.247,0 3.539,-1.9041 3.539,-5.2301c0,-3.3011 -1.312,-5.2301 -3.539,-5.2301c-2.228,0 -3.54,1.929 -3.54,5.2301c0,3.326 1.292,5.2301 3.54,5.2301zm0,-1.0937c-1.482,0 -2.347,-1.4866 -2.347,-4.1364c0,-2.6449 0.875,-4.1563 2.347,-4.1563c1.471,0 2.346,1.5114 2.346,4.1563c0,2.6498 -0.865,4.1364 -2.346,4.1364zm8.75,1.0937c2.247,0 3.539,-1.9041 3.539,-5.2301c0,-3.3011 -1.312,-5.2301 -3.539,-5.2301c-2.228,0 -3.54,1.929 -3.54,5.2301c0,3.326 1.292,5.2301 3.54,5.2301zm0,-1.0937c-1.482,0 -2.347,-1.4866 -2.347,-4.1364c0,-2.6449 0.875,-4.1563 2.347,-4.1563c1.471,0 2.346,1.5114 2.346,4.1563c0,2.6498 -0.865,4.1364 -2.346,4.1364z"/>
 </g>
</svg>